<?xml version="1.0" encoding="UTF-8" standalone="no"?>
<!-- Created with Inkscape (http://www.inkscape.org/) -->

<svg
   xmlns:dc="http://purl.org/dc/elements/1.1/"
   xmlns:cc="http://creativecommons.org/ns#"
   xmlns:rdf="http://www.w3.org/1999/02/22-rdf-syntax-ns#"
   xmlns:svg="http://www.w3.org/2000/svg"
   xmlns="http://www.w3.org/2000/svg"
   xmlns:sodipodi="http://sodipodi.sourceforge.net/DTD/sodipodi-0.dtd"
   xmlns:inkscape="http://www.inkscape.org/namespaces/inkscape"
   version="1.1"
   id="svg2"
   xml:space="preserve"
   width="332.59839"
   height="113.38587"
   viewBox="0 0 332.59839 113.38587"
   sodipodi:docname="chaoswest-sticker-35c3.svg"
   inkscape:version="0.92.2 2405546, 2018-03-11"><metadata
     id="metadata8"><rdf:RDF><cc:Work
         rdf:about=""><dc:format>image/svg+xml</dc:format><dc:type
           rdf:resource="http://purl.org/dc/dcmitype/StillImage" /><dc:title></dc:title></cc:Work></rdf:RDF></metadata><defs
     id="defs6"><clipPath
       clipPathUnits="userSpaceOnUse"
       id="clipPath40"><path
         d="M 0,0 H 249.4488 V 85.0394 H 0 Z"
         id="path38"
         inkscape:connector-curvature="0" /></clipPath><mask
       maskUnits="userSpaceOnUse"
       x="0"
       y="0"
       width="1"
       height="1"
       id="mask42"><g
         id="g50"><g
           clip-path="url(#clipPath40)"
           id="g48"><path
             d="M 73.4087,22.7649 39.539,3.2102 5.6693,22.7649 V 61.8743 L 39.539,81.429 73.4087,61.8743 Z"
             style="fill:none;stroke:#ffffff;stroke-width:5.6449523;stroke-linecap:butt;stroke-linejoin:miter;stroke-miterlimit:10;stroke-dasharray:none;stroke-opacity:1"
             id="path44"
             inkscape:connector-curvature="0" /><path
             d="M 73.4087,22.7649 39.539,3.2102 5.6693,22.7649 V 61.8743 L 39.539,81.429 73.4087,61.8743 Z"
             style="fill:#000000;fill-opacity:1;fill-rule:nonzero;stroke:none"
             id="path46"
             inkscape:connector-curvature="0" /></g></g></mask></defs><sodipodi:namedview
     pagecolor="#ffffff"
     bordercolor="#666666"
     borderopacity="1"
     objecttolerance="10"
     gridtolerance="10"
     guidetolerance="10"
     inkscape:pageopacity="0"
     inkscape:pageshadow="2"
     inkscape:window-width="3200"
     inkscape:window-height="1672"
     id="namedview4"
     showgrid="false"
     inkscape:zoom="5.6568543"
     inkscape:cx="139.94258"
     inkscape:cy="66.177067"
     inkscape:window-x="0"
     inkscape:window-y="44"
     inkscape:window-maximized="1"
     inkscape:current-layer="g56" /><g
     id="g10"
     inkscape:groupmode="layer"
     inkscape:label="chaoswest-sticker-35c3"
     transform="matrix(1.3333333,0,0,-1.3333333,0,113.38587)"><path
       inkscape:connector-curvature="0"
       id="path16"
       style="fill:#b5b4b2;fill-opacity:1;fill-rule:nonzero;stroke:none"
       d="M 242.7573,22.7649 208.8876,3.2102 175.0179,22.7649 v 39.1094 l 33.8697,19.5547 33.8697,-19.5547 z" /><path
       inkscape:connector-curvature="0"
       id="path18"
       style="fill:#9b9a99;fill-opacity:1;fill-rule:nonzero;stroke:none"
       d="M 214.5325,22.7649 180.6628,3.2102 146.7931,22.7649 v 39.1094 l 33.8697,19.5546 33.8697,-19.5546 z" /><path
       inkscape:connector-curvature="0"
       id="path20"
       style="fill:#818182;fill-opacity:1;fill-rule:nonzero;stroke:none"
       d="M 186.3078,22.7649 152.4381,3.2102 118.5683,22.7649 v 39.1094 l 33.8698,19.5547 33.8697,-19.5547 z" /><path
       inkscape:connector-curvature="0"
       id="path22"
       style="fill:#676768;fill-opacity:1;fill-rule:nonzero;stroke:none"
       d="M 158.083,22.7649 124.2133,3.2102 90.3436,22.7649 V 61.8743 L 124.2133,81.429 158.083,61.8743 Z" /><path
       inkscape:connector-curvature="0"
       id="path24"
       style="fill:#4d4d4e;fill-opacity:1;fill-rule:nonzero;stroke:none"
       d="M 129.8582,22.7649 95.9885,3.2102 62.1188,22.7649 V 61.8743 L 95.9885,81.429 129.8582,61.8743 Z" /><path
       inkscape:connector-curvature="0"
       id="path26"
       style="fill:#343232;fill-opacity:1;fill-rule:nonzero;stroke:none"
       d="M 101.6335,22.7649 67.7638,3.2102 33.8941,22.7649 V 61.8743 L 67.7638,81.429 101.6335,61.8743 Z" /><g
       id="g28"><path
         inkscape:connector-curvature="0"
         id="path30"
         style="fill:#110f0d;fill-opacity:1;fill-rule:nonzero;stroke:none"
         d="M 73.4087,22.7649 39.539,3.2102 5.6693,22.7649 V 61.8743 L 39.539,81.429 73.4087,61.8743 Z" /><g
         id="g32"><g
           id="g34"><g
             id="g36" /><g
             mask="url(#mask42)"
             id="g52"><path
               inkscape:connector-curvature="0"
               id="path54"
               style="fill:none;stroke:#100f0d;stroke-width:5.6449523;stroke-linecap:square;stroke-linejoin:miter;stroke-miterlimit:3;stroke-dasharray:none;stroke-opacity:1"
               d="M 73.4087,22.7649 39.539,3.2102 5.6693,22.7649 V 61.8743 L 39.539,81.429 73.4087,61.8743 Z" /></g></g></g></g><g
       id="g56"
       transform="matrix(0.98660231,0,0,1,1.0213223,0)"><path
         inkscape:connector-curvature="0"
         id="path58"
         style="fill:#100f0d;fill-opacity:0.5;fill-rule:nonzero;stroke:none"
         d="m 76.2312,63.5038 h 165.91194 l 2.87552,-1.6295 -3.6e-4,-39.1094 -2.86968,-1.6296 H 76.2312 Z"
         sodipodi:nodetypes="ccccccc" /></g><path
       inkscape:connector-curvature="0"
       id="path60"
       style="fill:#ffffff;fill-opacity:1;fill-rule:evenodd;stroke:none"
       d="m 158.6302,34.5403 v 0 -0.4847 h -1.1721 v 0.4847 0 c 0,0.0411 -0.0177,0.0617 -0.0529,0.0617 v 0 H 153.51 v 0 c -0.0411,0 -0.0617,-0.0206 -0.0617,-0.0617 v 0 -1.3043 0 c 0,-0.0411 0.0206,-0.0617 0.0617,-0.0617 v 0 h 3.8952 v 0 c 0.3349,0 0.6228,-0.119 0.8636,-0.3569 v 0 0 c 0.2409,-0.238 0.3614,-0.5273 0.3614,-0.8681 v 0 -1.3042 0 c 0,-0.3408 -0.1205,-0.6301 -0.3614,-0.8681 v 0 0 c -0.2408,-0.2379 -0.5287,-0.3569 -0.8636,-0.3569 v 0 H 153.51 v 0 c -0.3408,0 -0.6301,0.119 -0.8681,0.3569 v 0 0 c -0.2379,0.238 -0.3569,0.5273 -0.3569,0.8681 v 0 0.4847 h 1.1633 v -0.4847 0 c 0,-0.0412 0.0206,-0.0617 0.0617,-0.0617 v 0 h 3.8952 v 0 c 0.0352,0 0.0529,0.0205 0.0529,0.0617 v 0 1.3042 0 c 0,0.0412 -0.0177,0.0617 -0.0529,0.0617 v 0 H 153.51 v 0 c -0.3408,0 -0.6301,0.119 -0.8681,0.3569 v 0 0 c -0.2379,0.238 -0.3569,0.5273 -0.3569,0.8681 v 0 1.3043 0 c 0,0.3407 0.119,0.6301 0.3569,0.868 v 0 0 c 0.238,0.238 0.5273,0.3569 0.8681,0.3569 v 0 h 3.8952 v 0 c 0.3349,0 0.6228,-0.1189 0.8636,-0.3569 v 0 0 c 0.2409,-0.2379 0.3614,-0.5273 0.3614,-0.868 z m 3.8805,-5.1202 v 6.3363 h 5.1114 v 0 c 0.3407,0 0.6315,-0.1204 0.8724,-0.3613 v 0 0 c 0.2409,-0.2409 0.3613,-0.5288 0.3613,-0.8636 v 0 -1.7097 0 c 0,-0.3349 -0.1204,-0.6228 -0.3613,-0.8636 v 0 0 c -0.2409,-0.2409 -0.5317,-0.3614 -0.8724,-0.3614 v 0 l -3.9217,-0.0088 -0.0264,0.0088 v -2.1767 z m 5.173,3.4017 v 0 1.7097 0 c 0,0.0411 -0.0205,0.0617 -0.0616,0.0617 v 0 h -3.8865 v 0 c -0.0411,0 -0.0616,-0.0206 -0.0616,-0.0617 v 0 -1.7097 0 c 0,-0.0411 0.0205,-0.0617 0.0616,-0.0617 v 0 h 3.8865 v 0 c 0.0411,0 0.0616,0.0206 0.0616,0.0617 z m 5.978,2.9434 v 0 h 3.8864 v 0 c 0.3407,0 0.6316,-0.1189 0.8724,-0.3569 v 0 0 c 0.2409,-0.2379 0.3614,-0.5273 0.3614,-0.868 v 0 -5.1202 h -1.1721 v 2.1327 H 173.6 v -2.1327 h -1.1633 v 5.1202 0 c 0,0.3407 0.119,0.6301 0.3569,0.868 v 0 0 c 0.238,0.238 0.5273,0.3569 0.8681,0.3569 z M 173.6,34.5403 V 32.716 h 4.0098 v 1.8243 0 c 0,0.0411 -0.0206,0.0617 -0.0617,0.0617 v 0 h -3.8864 v 0 c -0.0411,0 -0.0617,-0.0206 -0.0617,-0.0617 z m 15.4516,1.2249 V 34.602 h -5.1025 v 0 c -0.0412,0 -0.0617,-0.0206 -0.0617,-0.0617 v 0 -3.8952 0 c 0,-0.0412 0.0205,-0.0617 0.0617,-0.0617 v 0 h 5.1025 v -1.1633 h -5.1025 v 0 c -0.3408,0 -0.6302,0.119 -0.8681,0.3569 v 0 0 c -0.2379,0.238 -0.3569,0.5273 -0.3569,0.8681 v 0 3.8952 0 c 0,0.3407 0.119,0.6301 0.3569,0.868 v 0 0 c 0.2379,0.238 0.5273,0.3569 0.8681,0.3569 v 0 z m 3.8717,0 h 5.834 V 34.602 h -4.6619 v -1.4277 h 3.7542 V 32.011 h -3.7542 v -1.4276 h 4.6619 v -1.1633 h -5.834 z m 15.9716,-1.2249 v 0 -0.4847 h -1.1721 v 0.4847 0 c 0,0.0411 -0.0176,0.0617 -0.0529,0.0617 v 0 h -3.8952 v 0 c -0.0411,0 -0.0617,-0.0206 -0.0617,-0.0617 v 0 -1.3043 0 c 0,-0.0411 0.0206,-0.0617 0.0617,-0.0617 v 0 h 3.8952 v 0 c 0.3349,0 0.6228,-0.119 0.8637,-0.3569 v 0 0 c 0.2408,-0.238 0.3613,-0.5273 0.3613,-0.8681 v 0 -1.3042 0 c 0,-0.3408 -0.1205,-0.6301 -0.3613,-0.8681 v 0 0 c -0.2409,-0.2379 -0.5288,-0.3569 -0.8637,-0.3569 v 0 h -3.8952 v 0 c -0.3408,0 -0.6301,0.119 -0.8681,0.3569 v 0 0 c -0.2379,0.238 -0.3569,0.5273 -0.3569,0.8681 v 0 0.4847 h 1.1633 v -0.4847 0 c 0,-0.0412 0.0206,-0.0617 0.0617,-0.0617 v 0 h 3.8952 v 0 c 0.0353,0 0.0529,0.0205 0.0529,0.0617 v 0 1.3042 0 c 0,0.0412 -0.0176,0.0617 -0.0529,0.0617 v 0 h -3.8952 v 0 c -0.3408,0 -0.6301,0.119 -0.8681,0.3569 v 0 0 c -0.2379,0.238 -0.3569,0.5273 -0.3569,0.8681 v 0 1.3043 0 c 0,0.3407 0.119,0.6301 0.3569,0.868 v 0 0 c 0.238,0.238 0.5273,0.3569 0.8681,0.3569 v 0 h 3.8952 v 0 c 0.3349,0 0.6228,-0.1189 0.8637,-0.3569 v 0 0 c 0.2408,-0.2379 0.3613,-0.5273 0.3613,-0.868 z M 85.7256,33.1743 v 2.5909 h 1.1633 V 29.4201 H 85.7256 V 32.011 H 81.566 v -2.5909 h -1.1633 v 6.3451 h 1.1633 v -2.5909 z m 6.3481,2.5909 v 0 h 3.8864 v 0 c 0.3408,0 0.6316,-0.1189 0.8725,-0.3569 v 0 0 c 0.2408,-0.2379 0.3613,-0.5273 0.3613,-0.868 v 0 -5.1202 h -1.1721 v 2.1327 H 92.012 v -2.1327 h -1.1633 v 5.1202 0 c 0,0.3407 0.119,0.6301 0.3569,0.868 v 0 0 c 0.238,0.238 0.5273,0.3569 0.8681,0.3569 z M 92.012,34.5403 V 32.716 h 4.0098 v 1.8243 0 c 0,0.0411 -0.0206,0.0617 -0.0617,0.0617 v 0 h -3.8864 v 0 c -0.0411,0 -0.0617,-0.0206 -0.0617,-0.0617 z m 15.4516,1.2249 V 34.602 h -5.1025 v 0 c -0.0412,0 -0.0617,-0.0206 -0.0617,-0.0617 v 0 -3.8952 0 c 0,-0.0412 0.0205,-0.0617 0.0617,-0.0617 v 0 h 5.1025 v -1.1633 h -5.1025 v 0 c -0.3408,0 -0.6302,0.119 -0.8681,0.3569 v 0 0 c -0.2379,0.238 -0.3569,0.5273 -0.3569,0.8681 v 0 3.8952 0 c 0,0.3407 0.119,0.6301 0.3569,0.868 v 0 0 c 0.2379,0.238 0.5273,0.3569 0.8681,0.3569 v 0 z m 6.5332,-2.5909 2.1679,2.5909 h 1.2778 v -0.3084 l -2.397,-2.8641 2.397,-2.8642 v -0.3084 h -1.2778 l -2.1679,2.5909 h -1.4982 v -2.5909 h -1.1721 v 6.3451 h 1.1721 v -2.5909 z m 8.4543,-3.7542 h -1.1633 v 6.3451 h 1.1633 z m 4.9733,6.3451 3.904,-4.6531 v 4.6531 h 1.1721 v -6.3451 h -1.269 l -3.9129,4.6531 v -4.6531 h -1.1633 v 6.3451 z m 15.3458,-1.2249 v 0 -0.4935 h -1.1721 v 0.4935 0 c 0,0.0411 -0.0205,0.0617 -0.0616,0.0617 v 0 h -3.8864 v 0 c -0.0412,0 -0.0617,-0.0206 -0.0617,-0.0617 v 0 -3.8952 0 c 0,-0.0412 0.0205,-0.0617 0.0617,-0.0617 v 0 h 3.8864 v 0 c 0.0411,0 0.0616,0.0205 0.0616,0.0617 v 0 1.1985 h -1.4364 v 1.1633 h 2.6085 v -2.3618 0 c 0,-0.3408 -0.1204,-0.6301 -0.3613,-0.8681 v 0 0 c -0.2409,-0.2379 -0.5317,-0.3569 -0.8724,-0.3569 v 0 h -3.8864 v 0 c -0.3408,0 -0.6302,0.119 -0.8681,0.3569 v 0 0 c -0.2379,0.238 -0.3569,0.5273 -0.3569,0.8681 v 0 3.8952 0 c 0,0.3407 0.119,0.6301 0.3569,0.868 v 0 0 c 0.2379,0.238 0.5273,0.3569 0.8681,0.3569 v 0 h 3.8864 v 0 c 0.3407,0 0.6315,-0.1189 0.8724,-0.3569 v 0 0 c 0.2409,-0.2379 0.3613,-0.5273 0.3613,-0.868 z" /><path
       inkscape:connector-curvature="0"
       id="path62"
       style="fill:#ffffff;fill-opacity:1;fill-rule:evenodd;stroke:none"
       d="m 181.1576,46.8918 3.0669,8.3721 h 2.4675 l -4.6178,-12.6903 h -1.8331 l -3.2959,9.0066 -3.296,-9.0066 h -1.8154 l -4.6179,12.6903 h 2.4676 l 3.0668,-8.3721 3.0668,8.3721 h 2.2737 z m 8.7129,8.3721 h 11.668 v -2.3265 h -9.3239 V 50.082 h 7.5085 v -2.3265 h -7.5085 v -2.8553 h 9.3239 v -2.3266 h -11.668 z m 27.5367,-2.4499 v 0 -0.9694 h -2.3442 v 0.9694 0 c 0,0.0822 -0.0352,0.1234 -0.1057,0.1234 v 0 h -7.7904 v 0 c -0.0823,0 -0.1234,-0.0412 -0.1234,-0.1234 v 0 -2.6086 0 c 0,-0.0822 0.0411,-0.1234 0.1234,-0.1234 v 0 h 7.7904 v 0 c 0.6698,0 1.2455,-0.2379 1.7273,-0.7138 v 0 0 c 0.4817,-0.4759 0.7226,-1.0546 0.7226,-1.7361 v 0 -2.6086 0 c 0,-0.6815 -0.2409,-1.2602 -0.7226,-1.7361 v 0 0 c -0.4818,-0.4758 -1.0575,-0.7138 -1.7273,-0.7138 v 0 h -7.7904 v 0 c -0.6816,0 -1.2603,0.238 -1.7361,0.7138 v 0 0 c -0.4759,0.4759 -0.7139,1.0546 -0.7139,1.7361 v 0 0.9694 h 2.3266 v -0.9694 0 c 0,-0.0822 0.0411,-0.1233 0.1234,-0.1233 v 0 h 7.7904 v 0 c 0.0705,0 0.1057,0.0411 0.1057,0.1233 v 0 2.6086 0 c 0,0.0823 -0.0352,0.1234 -0.1057,0.1234 v 0 h -7.7904 v 0 c -0.6816,0 -1.2603,0.2379 -1.7361,0.7138 v 0 0 c -0.4759,0.4759 -0.7139,1.0546 -0.7139,1.7361 v 0 2.6086 0 c 0,0.6815 0.238,1.2602 0.7139,1.7361 v 0 0 c 0.4758,0.4759 1.0545,0.7138 1.7361,0.7138 v 0 h 7.7904 v 0 c 0.6698,0 1.2455,-0.2379 1.7273,-0.7138 v 0 0 c 0.4817,-0.4759 0.7226,-1.0546 0.7226,-1.7361 z m 2.7202,0.1234 v 2.3265 h 12.6903 v -2.3265 h -5.1642 V 42.5736 h -2.3442 V 52.9374 Z M 92.6957,55.2639 V 52.9374 H 82.4906 v 0 c -0.0822,0 -0.1234,-0.0412 -0.1234,-0.1234 v 0 -7.7905 0 c 0,-0.0822 0.0412,-0.1233 0.1234,-0.1233 v 0 H 92.6957 V 42.5736 H 82.4906 v 0 c -0.6815,0 -1.2602,0.238 -1.7361,0.7138 v 0 0 c -0.4759,0.4759 -0.7138,1.0546 -0.7138,1.7361 v 0 7.7905 0 c 0,0.6815 0.2379,1.2602 0.7138,1.7361 v 0 0 c 0.4759,0.4759 1.0546,0.7138 1.7361,0.7138 v 0 z m 13.9652,-5.1819 v 5.1819 h 2.3266 V 42.5736 h -2.3266 v 5.1819 h -8.3192 v -5.1819 h -2.3265 v 12.6903 h 2.3265 V 50.082 Z m 8.2898,5.1819 v 0 h 7.7728 v 0 c 0.6816,0 1.2632,-0.2379 1.745,-0.7138 v 0 0 c 0.4817,-0.4759 0.7226,-1.0546 0.7226,-1.7361 v 0 -10.2404 h -2.3442 v 4.2654 h -8.0195 v -4.2654 h -2.3266 v 10.2404 0 c 0,0.6815 0.238,1.2602 0.7138,1.7361 v 0 0 c 0.4759,0.4759 1.0546,0.7138 1.7361,0.7138 z m -0.1233,-2.4499 v -3.6485 h 8.0195 v 3.6485 0 c 0,0.0822 -0.0411,0.1234 -0.1234,0.1234 v 0 h -7.7728 v 0 c -0.0822,0 -0.1233,-0.0412 -0.1233,-0.1234 z m 16.2565,2.4499 v 0 h 7.7904 v 0 c 0.6698,0 1.2455,-0.2379 1.7273,-0.7138 v 0 0 c 0.4817,-0.4759 0.7226,-1.0546 0.7226,-1.7361 v 0 -7.7905 0 c 0,-0.6815 -0.2409,-1.2602 -0.7226,-1.7361 v 0 0 c -0.4818,-0.4758 -1.0575,-0.7138 -1.7273,-0.7138 v 0 h -7.7904 v 0 c -0.6816,0 -1.2603,0.238 -1.7361,0.7138 v 0 0 c -0.4759,0.4759 -0.7139,1.0546 -0.7139,1.7361 v 0 7.7905 0 c 0,0.6815 0.238,1.2602 0.7139,1.7361 v 0 0 c 0.4758,0.4759 1.0545,0.7138 1.7361,0.7138 z m 0,-10.3637 v 0 h 7.7904 v 0 c 0.0705,0 0.1057,0.0411 0.1057,0.1233 v 0 7.7905 0 c 0,0.0822 -0.0352,0.1234 -0.1057,0.1234 v 0 h -7.7904 v 0 c -0.0823,0 -0.1234,-0.0412 -0.1234,-0.1234 v 0 -7.7905 0 c 0,-0.0822 0.0411,-0.1233 0.1234,-0.1233 z m 26.2501,7.9138 v 0 -0.9694 h -2.3442 v 0.9694 0 c 0,0.0822 -0.0353,0.1234 -0.1058,0.1234 v 0 h -7.7904 v 0 c -0.0822,0 -0.1234,-0.0412 -0.1234,-0.1234 v 0 -2.6086 0 c 0,-0.0822 0.0412,-0.1234 0.1234,-0.1234 v 0 h 7.7904 v 0 c 0.6698,0 1.2456,-0.2379 1.7273,-0.7138 v 0 0 c 0.4818,-0.4759 0.7227,-1.0546 0.7227,-1.7361 v 0 -2.6086 0 c 0,-0.6815 -0.2409,-1.2602 -0.7227,-1.7361 v 0 0 c -0.4817,-0.4758 -1.0575,-0.7138 -1.7273,-0.7138 v 0 h -7.7904 v 0 c -0.6815,0 -1.2602,0.238 -1.7361,0.7138 v 0 0 c -0.4759,0.4759 -0.7138,1.0546 -0.7138,1.7361 v 0 0.9694 h 2.3265 v -0.9694 0 c 0,-0.0822 0.0412,-0.1233 0.1234,-0.1233 v 0 h 7.7904 v 0 c 0.0705,0 0.1058,0.0411 0.1058,0.1233 v 0 2.6086 0 c 0,0.0823 -0.0353,0.1234 -0.1058,0.1234 v 0 h -7.7904 v 0 c -0.6815,0 -1.2602,0.2379 -1.7361,0.7138 v 0 0 c -0.4759,0.4759 -0.7138,1.0546 -0.7138,1.7361 v 0 2.6086 0 c 0,0.6815 0.2379,1.2602 0.7138,1.7361 v 0 0 c 0.4759,0.4759 1.0546,0.7138 1.7361,0.7138 v 0 h 7.7904 v 0 c 0.6698,0 1.2456,-0.2379 1.7273,-0.7138 v 0 0 c 0.4818,-0.4759 0.7227,-1.0546 0.7227,-1.7361 z" /><path
       inkscape:connector-curvature="0"
       id="path64"
       style="fill:#f14e1c;fill-opacity:1;fill-rule:evenodd;stroke:none"
       d="m 53.6514,40.69 -2.8225,-1.6295 -14.1124,8.1477 -5.6449,-3.2591 19.7573,-11.4069 8.4674,4.8887 m 5.645,3.2591 2.8225,1.6296 v 16.2955 l -5.645,3.2592 V 45.5787 c -1.1473,-0.6624 -2.0881,-1.2056 -2.8225,-1.6296 m -28.2247,6.5183 -2.8225,1.6295 v 16.2956 l -5.645,-3.2591 V 48.8378 l 2.8225,-1.6296" /><path
       inkscape:connector-curvature="0"
       id="path66"
       style="fill:#fac708;fill-opacity:1;fill-rule:evenodd;stroke:none"
       d="M 19.7817,37.4309 16.9592,35.8013 V 22.7649 l -5.645,3.2591 v 13.0365 l 2.8225,1.6295 m 5.645,3.2591 19.7573,11.4069 8.4674,-4.8886 v 0 L 42.3615,47.2082 39.539,48.8378 25.4266,40.69 m 22.5798,3.2591 14.1124,-8.1478 V 22.7649 l 5.645,3.2591 v 13.0365 l -14.1124,8.1477 z" /><path
       inkscape:connector-curvature="0"
       id="path68"
       style="fill:#3bac3d;fill-opacity:1;fill-rule:nonzero;stroke:none"
       d="m 33.8941,42.3196 -5.645,-3.2591 -11.2899,6.5182 v 16.2956 l -5.645,-3.2592 V 42.3196 l 16.9349,-9.7774 11.2899,6.5183 z m 11.2899,0 11.2899,6.5182 v 16.2956 l -5.645,3.2591 V 52.0969 L 39.5231,45.5734 Z" /></g></svg>