<svg xmlns="http://www.w3.org/2000/svg" xmlns:xlink="http://www.w3.org/1999/xlink" style="isolation:isolate" viewBox="0 0 880 300" width="880" height="300"><g style="isolation:isolate"><path d=" M 860 219 L 740 289 L 620 219 L 620 81 L 740 12 L 860 81 L 860 219 Z " fill="rgb(185,185,185)"/><path d=" M 760 219 L 640 289 L 520 219 L 520 81 L 640 12 L 760 81 L 760 219 Z " fill="rgb(162,162,162)"/><path d=" M 660 219 L 540 289 L 420 219 L 420 81 L 540 12 L 660 81 L 660 219 Z " fill="rgb(139,139,139)"/><path d=" M 560 219 L 440 289 L 320 219 L 320 81 L 440 12 L 560 81 L 560 219 Z " fill="rgb(116,116,116)"/><path d=" M 460 219 L 340 289 L 220 219 L 220 81 L 340 12 L 460 81 L 460 219 Z " fill="rgb(93,93,93)"/><path d=" M 360 219 L 240 289 L 120 219 L 120 81 L 240 12 L 360 81 L 360 219 Z " fill="rgb(70,70,70)"/><mask id="_mask_uxf42SVQx9pTrwN5qOmjkKco0PLjK7hj" x="-200%" y="-200%" width="400%" height="400%"><rect x="-200%" y="-200%" width="400%" height="400%" style="fill:white;"/><path d=" M 260 219 L 140 289 L 20 219 L 20 81 L 140 12 L 260 81 L 260 219 Z " fill="black" stroke="none"/></mask><path d=" M 260 219 L 140 289 L 20 219 L 20 81 L 140 12 L 260 81 L 260 219 Z " fill="rgb(23,23,23)" mask="url(#_mask_uxf42SVQx9pTrwN5qOmjkKco0PLjK7hj)" vector-effect="non-scaling-stroke" stroke-width="20" stroke="rgb(0,0,0)" stroke-linejoin="miter" stroke-linecap="square" stroke-miterlimit="3"/><rect x="270" y="75.056" width="598" height="150.111" transform="matrix(1,0,0,1,0,0)" fill="rgb(0,0,0)" fill-opacity="0.5"/><path d=" M 562 178 L 562 178 L 562 179 L 558 179 L 558 178 L 558 178 Q 558 177 558 177 L 558 177 L 544 177 L 544 177 Q 544 177 544 178 L 544 178 L 544 182 L 544 182 Q 544 183 544 183 L 544 183 L 558 183 L 558 183 Q 559 183 561 184 L 561 184 L 561 184 Q 562 185 562 187 L 562 187 L 562 191 L 562 191 Q 562 193 561 195 L 561 195 L 561 195 Q 559 196 558 196 L 558 196 L 544 196 L 544 196 Q 542 196 541 195 L 541 195 L 541 195 Q 539 193 539 191 L 539 191 L 539 190 L 544 190 L 544 191 L 544 191 Q 544 192 544 192 L 544 192 L 558 192 L 558 192 Q 558 192 558 191 L 558 191 L 558 187 L 558 187 Q 558 187 558 187 L 558 187 L 544 187 L 544 187 Q 542 187 541 185 L 541 185 L 541 185 Q 539 184 539 182 L 539 182 L 539 178 L 539 178 Q 539 176 541 175 L 541 175 L 541 175 Q 542 173 544 173 L 544 173 L 558 173 L 558 173 Q 559 173 561 175 L 561 175 L 561 175 Q 562 176 562 178 Z  M 576 196 L 576 173 L 594 173 L 594 173 Q 596 173 597 175 L 597 175 L 597 175 Q 598 176 598 178 L 598 178 L 598 184 L 598 184 Q 598 186 597 187 L 597 187 L 597 187 Q 596 188 594 188 L 594 188 L 580 188 L 580 188 L 580 196 L 576 196 L 576 196 Z  M 594 184 L 594 184 L 594 178 L 594 178 Q 594 177 594 177 L 594 177 L 580 177 L 580 177 Q 580 177 580 178 L 580 178 L 580 184 L 580 184 Q 580 184 580 184 L 580 184 L 594 184 L 594 184 Q 594 184 594 184 Z  M 615 173 L 615 173 L 629 173 L 629 173 Q 631 173 632 175 L 632 175 L 632 175 Q 633 176 633 178 L 633 178 L 633 196 L 629 196 L 629 188 L 615 188 L 615 196 L 611 196 L 611 178 L 611 178 Q 611 176 612 175 L 612 175 L 612 175 Q 613 173 615 173 Z  M 615 178 L 615 184 L 629 184 L 629 178 L 629 178 Q 629 177 629 177 L 629 177 L 615 177 L 615 177 Q 615 177 615 178 L 615 178 L 615 178 Z  M 670 173 L 670 177 L 652 177 L 652 177 Q 651 177 651 178 L 651 178 L 651 191 L 651 191 Q 651 192 652 192 L 652 192 L 670 192 L 670 196 L 652 196 L 652 196 Q 650 196 649 195 L 649 195 L 649 195 Q 647 193 647 191 L 647 191 L 647 178 L 647 178 Q 647 176 649 175 L 649 175 L 649 175 Q 650 173 652 173 L 652 173 L 670 173 L 670 173 Z  M 683 173 L 704 173 L 704 177 L 688 177 L 688 183 L 701 183 L 701 187 L 688 187 L 688 192 L 704 192 L 704 196 L 683 196 L 683 173 L 683 173 Z  M 740 178 L 740 178 L 740 179 L 736 179 L 736 178 L 736 178 Q 736 177 736 177 L 736 177 L 722 177 L 722 177 Q 722 177 722 178 L 722 178 L 722 182 L 722 182 Q 722 183 722 183 L 722 183 L 736 183 L 736 183 Q 737 183 739 184 L 739 184 L 739 184 Q 740 185 740 187 L 740 187 L 740 191 L 740 191 Q 740 193 739 195 L 739 195 L 739 195 Q 737 196 736 196 L 736 196 L 722 196 L 722 196 Q 720 196 719 195 L 719 195 L 719 195 Q 718 193 718 191 L 718 191 L 718 190 L 722 190 L 722 191 L 722 191 Q 722 192 722 192 L 722 192 L 736 192 L 736 192 Q 736 192 736 191 L 736 191 L 736 187 L 736 187 Q 736 187 736 187 L 736 187 L 722 187 L 722 187 Q 720 187 719 185 L 719 185 L 719 185 Q 718 184 718 182 L 718 182 L 718 178 L 718 178 Q 718 176 719 175 L 719 175 L 719 175 Q 720 173 722 173 L 722 173 L 736 173 L 736 173 Q 737 173 739 175 L 739 175 L 739 175 Q 740 176 740 178 Z  M 304 183 L 304 173 L 308 173 L 308 196 L 304 196 L 304 187 L 289 187 L 289 196 L 285 196 L 285 173 L 289 173 L 289 183 L 304 183 L 304 183 Z  M 326 173 L 326 173 L 340 173 L 340 173 Q 342 173 343 175 L 343 175 L 343 175 Q 344 176 344 178 L 344 178 L 344 196 L 340 196 L 340 188 L 326 188 L 326 196 L 322 196 L 322 178 L 322 178 Q 322 176 323 175 L 323 175 L 323 175 Q 324 173 326 173 Z  M 326 178 L 326 184 L 340 184 L 340 178 L 340 178 Q 340 177 340 177 L 340 177 L 326 177 L 326 177 Q 326 177 326 178 L 326 178 L 326 178 Z  M 381 173 L 381 177 L 363 177 L 363 177 Q 362 177 362 178 L 362 178 L 362 191 L 362 191 Q 362 192 363 192 L 363 192 L 381 192 L 381 196 L 363 196 L 363 196 Q 361 196 360 195 L 360 195 L 360 195 Q 358 193 358 191 L 358 191 L 358 178 L 358 178 Q 358 176 360 175 L 360 175 L 360 175 Q 361 173 363 173 L 363 173 L 381 173 L 381 173 Z  M 404 183 L 411 173 L 416 173 L 416 174 L 408 185 L 416 195 L 416 196 L 411 196 L 404 187 L 398 187 L 398 196 L 394 196 L 394 173 L 398 173 L 398 183 L 404 183 L 404 183 Z  M 434 196 L 430 196 L 430 173 L 434 173 L 434 196 L 434 196 Z  M 451 173 L 465 190 L 465 173 L 469 173 L 469 196 L 465 196 L 451 179 L 451 196 L 447 196 L 447 173 L 451 173 L 451 173 Z  M 506 178 L 506 178 L 506 179 L 502 179 L 502 178 L 502 178 Q 502 177 501 177 L 501 177 L 488 177 L 488 177 Q 487 177 487 178 L 487 178 L 487 191 L 487 191 Q 487 192 488 192 L 488 192 L 501 192 L 501 192 Q 502 192 502 191 L 502 191 L 502 187 L 497 187 L 497 183 L 506 183 L 506 191 L 506 191 Q 506 193 504 195 L 504 195 L 504 195 Q 503 196 501 196 L 501 196 L 488 196 L 488 196 Q 486 196 485 195 L 485 195 L 485 195 Q 483 193 483 191 L 483 191 L 483 178 L 483 178 Q 483 176 485 175 L 485 175 L 485 175 Q 486 173 488 173 L 488 173 L 501 173 L 501 173 Q 503 173 504 175 L 504 175 L 504 175 Q 506 176 506 178 Z " fill-rule="evenodd" fill="rgb(255,255,255)"/><path d=" M 642 134 L 653 104 L 661 104 L 645 149 L 639 149 L 627 117 L 615 149 L 609 149 L 592 104 L 601 104 L 612 134 L 623 104 L 631 104 L 642 134 L 642 134 Z  M 673 104 L 714 104 L 714 112 L 681 112 L 681 123 L 708 123 L 708 131 L 681 131 L 681 141 L 714 141 L 714 149 L 673 149 L 673 104 L 673 104 Z  M 770 113 L 770 113 L 770 116 L 762 116 L 762 113 L 762 113 Q 762 112 762 112 L 762 112 L 734 112 L 734 112 Q 733 112 733 113 L 733 113 L 733 122 L 733 122 Q 733 123 734 123 L 734 123 L 762 123 L 762 123 Q 765 123 768 125 L 768 125 L 768 125 Q 770 128 770 131 L 770 131 L 770 141 L 770 141 Q 770 144 768 147 L 768 147 L 768 147 Q 765 149 762 149 L 762 149 L 734 149 L 734 149 Q 730 149 728 147 L 728 147 L 728 147 Q 725 144 725 141 L 725 141 L 725 137 L 733 137 L 733 141 L 733 141 Q 733 141 734 141 L 734 141 L 762 141 L 762 141 Q 762 141 762 141 L 762 141 L 762 131 L 762 131 Q 762 131 762 131 L 762 131 L 734 131 L 734 131 Q 730 131 728 128 L 728 128 L 728 128 Q 725 126 725 122 L 725 122 L 725 113 L 725 113 Q 725 109 728 107 L 728 107 L 728 107 Q 730 104 734 104 L 734 104 L 762 104 L 762 104 Q 765 104 768 107 L 768 107 L 768 107 Q 770 109 770 113 Z  M 780 112 L 780 104 L 825 104 L 825 112 L 806 112 L 806 149 L 798 149 L 798 112 L 780 112 L 780 112 Z  M 328 104 L 328 112 L 292 112 L 292 112 Q 292 112 292 113 L 292 113 L 292 141 L 292 141 Q 292 141 292 141 L 292 141 L 328 141 L 328 149 L 292 149 L 292 149 Q 289 149 286 147 L 286 147 L 286 147 Q 283 144 283 141 L 283 141 L 283 113 L 283 113 Q 283 109 286 107 L 286 107 L 286 107 Q 289 104 292 104 L 292 104 L 328 104 L 328 104 Z  M 378 123 L 378 104 L 386 104 L 386 149 L 378 149 L 378 131 L 348 131 L 348 149 L 340 149 L 340 104 L 348 104 L 348 123 L 378 123 L 378 123 Z  M 407 104 L 407 104 L 435 104 L 435 104 Q 438 104 441 107 L 441 107 L 441 107 Q 443 109 443 113 L 443 113 L 443 149 L 435 149 L 435 134 L 407 134 L 407 149 L 399 149 L 399 113 L 399 113 Q 399 109 401 107 L 401 107 L 401 107 Q 404 104 407 104 Z  M 407 113 L 407 126 L 435 126 L 435 113 L 435 113 Q 435 112 435 112 L 435 112 L 407 112 L 407 112 Q 407 112 407 113 L 407 113 L 407 113 Z  M 464 104 L 464 104 L 492 104 L 492 104 Q 496 104 498 107 L 498 107 L 498 107 Q 501 109 501 113 L 501 113 L 501 141 L 501 141 Q 501 144 498 147 L 498 147 L 498 147 Q 496 149 492 149 L 492 149 L 464 149 L 464 149 Q 461 149 458 147 L 458 147 L 458 147 Q 456 144 456 141 L 456 141 L 456 113 L 456 113 Q 456 109 458 107 L 458 107 L 458 107 Q 461 104 464 104 Z  M 464 141 L 464 141 L 492 141 L 492 141 Q 492 141 492 141 L 492 141 L 492 113 L 492 113 Q 492 112 492 112 L 492 112 L 464 112 L 464 112 Q 464 112 464 113 L 464 113 L 464 141 L 464 141 Q 464 141 464 141 Z  M 557 113 L 557 113 L 557 116 L 549 116 L 549 113 L 549 113 Q 549 112 549 112 L 549 112 L 521 112 L 521 112 Q 521 112 521 113 L 521 113 L 521 122 L 521 122 Q 521 123 521 123 L 521 123 L 549 123 L 549 123 Q 552 123 555 125 L 555 125 L 555 125 Q 557 128 557 131 L 557 131 L 557 141 L 557 141 Q 557 144 555 147 L 555 147 L 555 147 Q 552 149 549 149 L 549 149 L 521 149 L 521 149 Q 517 149 515 147 L 515 147 L 515 147 Q 512 144 512 141 L 512 141 L 512 137 L 521 137 L 521 141 L 521 141 Q 521 141 521 141 L 521 141 L 549 141 L 549 141 Q 549 141 549 141 L 549 141 L 549 131 L 549 131 Q 549 131 549 131 L 549 131 L 521 131 L 521 131 Q 517 131 515 128 L 515 128 L 515 128 Q 512 126 512 122 L 512 122 L 512 113 L 512 113 Q 512 109 515 107 L 515 107 L 515 107 Q 517 104 521 104 L 521 104 L 549 104 L 549 104 Q 552 104 555 107 L 555 107 L 555 107 Q 557 109 557 113 Z " fill-rule="evenodd" fill="rgb(255,255,255)"/></g><g style="isolation:isolate"><path d=" M 190 156 L 180 162 L 130 133 L 110 144 L 180 185 L 210 167 M 230 156 L 240 150 L 240 92 L 220 81 L 220 139 Q 214 142 210 144 M 110 121 L 100 115 L 100 58 L 80 69 L 80 127 L 90 133" fill-rule="evenodd" fill="rgb(255,102,0)"/><path d=" M 70 167 L 60 173 L 60 219 L 40 208 L 40 162 L 50 156 M 70 144 L 140 104 L 170 121 L 170 121 L 150 133 L 140 127 L 90 156 M 170 144 L 220 173 L 220 219 L 240 208 L 240 162 L 190 133 L 170 144 Z " fill-rule="evenodd" fill="rgb(255,204,0)"/><path d=" M 120 150 L 100 162 L 60 139 L 60 81 L 40 92 L 40 150 L 100 185 L 140 162 L 120 150 L 120 150 Z  M 160 150 L 200 127 L 200 69 L 180 58 L 180 115 L 140 139 L 160 150 Z " fill="rgb(68,170,0)"/></g></svg>
